# xmcd CD database file
#
# Track frame offsets:
#	150
#	5009
#	20996
#	43723
#	64883
#	87296
#	103597
#	118801
#	139961
#	154694
#	171308
#	189646
#	202812
#	221621
#
# Disc length: 3015 seconds
#
# Revision: 12
# Processed by: cddbd v1.5.1PL0 Copyright (c) Steve Scherf et al.
# Submitted via: CDex 1.50beta8
#
DISCID=cd0bc50e
DTITLE=B'z - LOOSE
DYEAR=1995
DGENRE=Rock and Roll
TTITLE0=spirit loose
TTITLE1=ザ・ルーズ
TTITLE2=ねがい(BUZZ!! STYLE)
TTITLE3=夢見が丘
TTITLE4=BAD COMMUNICATION(000-18)
TTITLE5=消えない虹
TTITLE6=love me, I love you (with G Bass)
TTITLE7=LOVE PHANTOM
TTITLE8=敵がいなけりゃ
TTITLE9=砂の花びら
TTITLE10=キレイな愛じゃなくても
TTITLE11=BIG
TTITLE12=drive to MY WORLD
TTITLE13=secret track [*]
EXTD=YEAR: 1995
EXTT0=
EXTT1=
EXTT2=
EXTT3=
EXTT4=
EXTT5=
EXTT6=
EXTT7=
EXTT8=
EXTT9=
EXTT10=
EXTT11=
EXTT12=
EXTT13=
PLAYORDER=
